<svg width="10" height="10" viewBox="0 0 10 10" fill="none" xmlns="http://www.w3.org/2000/svg">
<path fill-rule="evenodd" clip-rule="evenodd" d="M4.62109 0.140612C4.80858 -0.0468706 5.1133 -0.0468706 5.30078 0.140612L9.77539 4.6162C9.80011 4.6402 9.82268 4.66647 9.8418 4.6953C9.96584 4.88176 9.94568 5.13634 9.78125 5.30077L5.30078 9.78124C5.11337 9.9685 4.80855 9.96842 4.62109 9.78124C4.434 9.59385 4.43405 9.28995 4.62109 9.10253L8.28223 5.44139H0.480469C0.215368 5.44139 6.43237e-05 5.22601 0 4.96092C0 4.69578 0.215328 4.48046 0.480469 4.48046H8.28223L4.62109 0.820299C4.43366 0.632862 4.43375 0.328106 4.62109 0.140612Z" fill="#4A5846"/>
</svg>
